HIERARCHY
ROOT Root
{
  OFFSET 0.0 0.0 0.0
  CHANNELS 6 Xposition Yposition Zposition Zrotation Yrotation Xrotation
  JOINT Hips
  {
    OFFSET 0.0 100.0 0.0
    CHANNELS 6 Xposition Yposition Zposition Zrotation Yrotation Xrotation
    JOINT Spine1
    {
      OFFSET -0.013727 5.003763 -0.053727
      CHANNELS 3 Zrotation Yrotation Xrotation
      JOINT Spine2
      {
        OFFSET -0.0 7.125301 -0.029825
        CHANNELS 3 Zrotation Yrotation Xrotation
        JOINT Chest
        {
          OFFSET -1e-06 7.550063 -0.815971
          CHANNELS 3 Zrotation Yrotation Xrotation
          JOINT Neck1
          {
            OFFSET -0.181677 26.311295 -0.553348
            CHANNELS 3 Zrotation Yrotation Xrotation
            JOINT Neck2
            {
              OFFSET -3e-06 7.709397 2.302585
              CHANNELS 3 Zrotation Yrotation Xrotation
              JOINT Head
              {
                OFFSET -5e-06 6.128916 1.953709
                CHANNELS 3 Zrotation Yrotation Xrotation
                JOINT HeadEnd
                {
                  OFFSET 0.003598 16.065403 -1.835379
                  CHANNELS 3 Zrotation Yrotation Xrotation
                }
                JOINT Jaw
                {
                  OFFSET 0.002637 0.475592 3.094941
                  CHANNELS 3 Zrotation Yrotation Xrotation
                }
                JOINT LeftEye
                {
                  OFFSET 3.206381 5.380205 7.586883
                  CHANNELS 3 Zrotation Yrotation Xrotation
                }
                JOINT RightEye
                {
                  OFFSET -3.22244 5.361869 7.558234
                  CHANNELS 3 Zrotation Yrotation Xrotation
                }
              }
            }
          }
          JOINT LeftShoulder
          {
            OFFSET 1.621652 23.237164 5.113413
            CHANNELS 3 Zrotation Yrotation Xrotation
            JOINT LeftArm
            {
              OFFSET 14.919846 2e-06 -5.502326
              CHANNELS 3 Zrotation Yrotation Xrotation
              JOINT LeftForeArm
              {
                OFFSET 28.739307 0.0 -0.002588
                CHANNELS 3 Zrotation Yrotation Xrotation
                JOINT LeftHand
                {
                  OFFSET 27.093981 -1e-06 0.002609
                  CHANNELS 3 Zrotation Yrotation Xrotation
                  JOINT LeftHandThumb1
                  {
                    OFFSET 2.276482 -1.392045 3.191413
                    CHANNELS 3 Zrotation Yrotation Xrotation
                    JOINT LeftHandThumb2
                    {
                      OFFSET 4.012836 -1.828127 1.641654
                      CHANNELS 3 Zrotation Yrotation Xrotation
                      JOINT LeftHandThumb3
                      {
                        OFFSET 2.798515 0.0 -3e-06
                        CHANNELS 3 Zrotation Yrotation Xrotation
                        JOINT LeftHandThumbEnd
                        {
                          OFFSET 3.180793 -4e-06 4e-06
                          CHANNELS 3 Zrotation Yrotation Xrotation
                        }
                      }
                    }
                  }
                  JOINT LeftHandIndex1
                  {
                    OFFSET 3.247555 -0.531998 2.296169
                    CHANNELS 3 Zrotation Yrotation Xrotation
                    JOINT LeftHandIndex2
                    {
                      OFFSET 6.364578 0.01206 0.1786
                      CHANNELS 3 Zrotation Yrotation Xrotation
                      JOINT LeftHandIndex3
                      {
                        OFFSET 3.662364 0.0 0.0
                        CHANNELS 3 Zrotation Yrotation Xrotation
                        JOINT LeftHandIndex4
                        {
                          OFFSET 2.329242 4e-06 4e-06
                          CHANNELS 3 Zrotation Yrotation Xrotation
                          JOINT LeftHandIndexEnd
                          {
                            OFFSET 2.759615 -0.180537 -0.113024
                            CHANNELS 3 Zrotation Yrotation Xrotation
                          }
                        }
                      }
                    }
                  }
                  JOINT LeftHandMiddle1
                  {
                    OFFSET 3.163495 0.240981 1.000332
                    CHANNELS 3 Zrotation Yrotation Xrotation
                    JOINT LeftHandMiddle2
                    {
                      OFFSET 6.19078 -0.259278 -1.002548
                      CHANNELS 3 Zrotation Yrotation Xrotation
                      JOINT LeftHandMiddle3
                      {
                        OFFSET 4.35652 -4e-06 -1e-06
                        CHANNELS 3 Zrotation Yrotation Xrotation
                        JOINT LeftHandMiddle4
                        {
                          OFFSET 2.996877 -8e-06 0.0
                          CHANNELS 3 Zrotation Yrotation Xrotation
                          JOINT LeftHandMiddleEnd
                          {
                            OFFSET 2.304287 -0.294569 -0.031741
                            CHANNELS 3 Zrotation Yrotation Xrotation
                          }
                        }
                      }
                    }
                  }
                  JOINT LeftHandRing1
                  {
                    OFFSET 2.882643 -0.053652 -0.322543
                    CHANNELS 3 Zrotation Yrotation Xrotation
                    JOINT LeftHandRing2
                    {
                      OFFSET 5.854541 -0.486202 -1.373841
                      CHANNELS 3 Zrotation Yrotation Xrotation
                      JOINT LeftHandRing3
                      {
                        OFFSET 4.350578 0.0 3e-06
                        CHANNELS 3 Zrotation Yrotation Xrotation
                        JOINT LeftHandRing4
                        {
                          OFFSET 2.651321 7e-06 2e-06
                          CHANNELS 3 Zrotation Yrotation Xrotation
                          JOINT LeftHandRingEnd
                          {
                            OFFSET 1.936105 0.077687 -7.1e-05
                            CHANNELS 3 Zrotation Yrotation Xrotation
                          }
                        }
                      }
                    }
                  }
                  JOINT LeftHandPinky1
                  {
                    OFFSET 2.8655 -0.310005 -1.600378
                    CHANNELS 3 Zrotation Yrotation Xrotation
                    JOINT LeftHandPinky2
                    {
                      OFFSET 5.087849 -1.331141 -1.77123
                      CHANNELS 3 Zrotation Yrotation Xrotation
                      JOINT LeftHandPinky3
                      {
                        OFFSET 3.070974 4e-06 0.0
                        CHANNELS 3 Zrotation Yrotation Xrotation
                        JOINT LeftHandPinky4
                        {
                          OFFSET 1.549672 0.0 1e-06
                          CHANNELS 3 Zrotation Yrotation Xrotation
                          JOINT LeftHandPinkyEnd
                          {
                            OFFSET 1.944893 -0.157802 0.057219
                            CHANNELS 3 Zrotation Yrotation Xrotation
                          }
                        }
                      }
                    }
                  }
                }
              }
            }
          }
          JOINT RightShoulder
          {
            OFFSET -1.380118 23.180309 5.214158
            CHANNELS 3 Zrotation Yrotation Xrotation
            JOINT RightArm
            {
              OFFSET -15.037196 1.2e-05 -5.545604
              CHANNELS 3 Zrotation Yrotation Xrotation
              JOINT RightForeArm
              {
                OFFSET -28.736639 2e-06 -0.002597
                CHANNELS 3 Zrotation Yrotation Xrotation
                JOINT RightHand
                {
                  OFFSET -27.133619 -0.0 0.002613
                  CHANNELS 3 Zrotation Yrotation Xrotation
                  JOINT RightHandThumb1
                  {
                    OFFSET -2.274032 -1.383988 3.163127
                    CHANNELS 3 Zrotation Yrotation Xrotation
                    JOINT RightHandThumb2
                    {
                      OFFSET -4.011429 -1.827466 1.640914
                      CHANNELS 3 Zrotation Yrotation Xrotation
                      JOINT RightHandThumb3
                      {
                        OFFSET -2.794935 -4e-06 -3e-06
                        CHANNELS 3 Zrotation Yrotation Xrotation
                        JOINT RightHandThumbEnd
                        {
                          OFFSET -3.183852 4e-06 1e-06
                          CHANNELS 3 Zrotation Yrotation Xrotation
                        }
                      }
                    }
                  }
                  JOINT RightHandIndex1
                  {
                    OFFSET -3.253266 -0.520057 2.282866
                    CHANNELS 3 Zrotation Yrotation Xrotation
                    JOINT RightHandIndex2
                    {
                      OFFSET -6.341917 0.012471 0.178266
                      CHANNELS 3 Zrotation Yrotation Xrotation
                      JOINT RightHandIndex3
                      {
                        OFFSET -3.654871 -8e-06 -0.0
                        CHANNELS 3 Zrotation Yrotation Xrotation
                        JOINT RightHandIndex4
                        {
                          OFFSET -2.327586 0.0 1e-06
                          CHANNELS 3 Zrotation Yrotation Xrotation
                          JOINT RightHandIndexEnd
                          {
                            OFFSET -2.76179 -0.180656 -0.113078
                            CHANNELS 3 Zrotation Yrotation Xrotation
                          }
                        }
                      }
                    }
                  }
                  JOINT RightHandMiddle1
                  {
                    OFFSET -3.168106 0.246593 1.00103
                    CHANNELS 3 Zrotation Yrotation Xrotation
                    JOINT RightHandMiddle2
                    {
                      OFFSET -6.180828 -0.258836 -1.000895
                      CHANNELS 3 Zrotation Yrotation Xrotation
                      JOINT RightHandMiddle3
                      {
                        OFFSET -4.348901 0.0 -0.0
                        CHANNELS 3 Zrotation Yrotation Xrotation
                        JOINT RightHandMiddle4
                        {
                          OFFSET -3.00024 -4e-06 -2e-06
                          CHANNELS 3 Zrotation Yrotation Xrotation
                          JOINT RightHandMiddleEnd
                          {
                            OFFSET -2.30252 -0.29437 -0.031706
                            CHANNELS 3 Zrotation Yrotation Xrotation
                          }
                        }
                      }
                    }
                  }
                  JOINT RightHandRing1
                  {
                    OFFSET -2.88569 -0.067952 -0.308858
                    CHANNELS 3 Zrotation Yrotation Xrotation
                    JOINT RightHandRing2
                    {
                      OFFSET -5.854198 -0.48613 -1.373731
                      CHANNELS 3 Zrotation Yrotation Xrotation
                      JOINT RightHandRing3
                      {
                        OFFSET -4.33881 -4e-06 -0.0
                        CHANNELS 3 Zrotation Yrotation Xrotation
                        JOINT RightHandRing4
                        {
                          OFFSET -2.654903 -4e-06 4e-06
                          CHANNELS 3 Zrotation Yrotation Xrotation
                          JOINT RightHandRingEnd
                          {
                            OFFSET -1.933568 0.077527 -5.2e-05
                            CHANNELS 3 Zrotation Yrotation Xrotation
                          }
                        }
                      }
                    }
                  }
                  JOINT RightHandPinky1
                  {
                    OFFSET -2.866425 -0.342796 -1.584145
                    CHANNELS 3 Zrotation Yrotation Xrotation
                    JOINT RightHandPinky2
                    {
                      OFFSET -5.091371 -1.332055 -1.772385
                      CHANNELS 3 Zrotation Yrotation Xrotation
                      JOINT RightHandPinky3
                      {
                        OFFSET -3.062664 -4e-06 1e-06
                        CHANNELS 3 Zrotation Yrotation Xrotation
                        JOINT RightHandPinky4
                        {
                          OFFSET -1.546529 4e-06 -2e-06
                          CHANNELS 3 Zrotation Yrotation Xrotation
                          JOINT RightHandPinkyEnd
                          {
                            OFFSET -1.945119 -0.157718 0.057211
                            CHANNELS 3 Zrotation Yrotation Xrotation
                          }
                        }
                      }
                    }
                  }
                }
              }
            }
          }
        }
      }
    }
    JOINT LeftLeg
    {
      OFFSET 10.043214 -8.434526 2.595655
      CHANNELS 3 Zrotation Yrotation Xrotation
      JOINT LeftShin
      {
        OFFSET -1e-06 -43.221752 -0.802913
        CHANNELS 3 Zrotation Yrotation Xrotation
        JOINT LeftFoot
        {
          OFFSET 1e-06 -42.155094 -3.481523
          CHANNELS 3 Zrotation Yrotation Xrotation
          JOINT LeftToeBase
          {
            OFFSET 0.0 -5.059472 13.231529
            CHANNELS 3 Zrotation Yrotation Xrotation
            JOINT LeftToeEnd
            {
              OFFSET -0.009607 -1.647619 6.513017
              CHANNELS 3 Zrotation Yrotation Xrotation
            }
          }
        }
      }
    }
    JOINT RightLeg
    {
      OFFSET -10.047278 -8.29526 2.620317
      CHANNELS 3 Zrotation Yrotation Xrotation
      JOINT RightShin
      {
        OFFSET 1e-06 -43.362206 -0.805556
        CHANNELS 3 Zrotation Yrotation Xrotation
        JOINT RightFoot
        {
          OFFSET 2e-06 -42.117393 -3.478398
          CHANNELS 3 Zrotation Yrotation Xrotation
          JOINT RightToeBase
          {
            OFFSET -0.0 -5.079609 13.284196
            CHANNELS 3 Zrotation Yrotation Xrotation
            JOINT RightToeEnd
            {
              OFFSET 0.009532 -1.634378 6.460591
              CHANNELS 3 Zrotation Yrotation Xrotation
            }
          }
        }
      }
    }
  }
}
MOTION
Frames: 4
Frame Time: 0.03333333333333333
-44.830601 0.0 313.029846 0.0 -0.0 0.0 0.0 95.703682 0.0 1.451482 -9.173 -1.144261 -1.507243 -0.467218 0.874125 -0.932379 -2.307948 -4.468832 -0.610419 -4.258182 10.929482 2.383718 2.800757 0.84601 0.151021 3.480666 -3.940741 -0.522064 4.299475 -15.655304 -7e-06 -0.000241 0.006573 0.027971 -0.068913 0.007864 0.694553 -3.76383 -10.623567 -0.643957 3.635527 -10.617111 -13.650239 -6.080265 16.280853 -59.993809 -10.861191 -0.895361 -0.160825 -26.12314 -0.266929 13.480027 -1.294098 -0.596045 -5.849709 9.885529 0.682807 -10.968983 -0.419136 7.123941 -0.002302 8.757486 -0.004335 -15.540299 18.232681 6.715363 -1.843492 2.493539 -2.508627 -10.15062 4.688953 4.640738 -20.939678 0.003917 -0.009733 -21.203741 2.467947 -3.59238 -0.012182 0.001648 0.00583 -1.36496 2.220627 -0.732731 -21.27869 0.60779 2.994107 -13.790282 0.011129 0.018047 -23.811892 -0.250693 -0.834659 -60.727016 2.945341 -0.699472 -0.289537 1.65481 0.832302 -14.195611 0.127286 1.312625 -34.126694 -0.283266 0.961514 -19.997087 0.982781 1.230116 0.010147 0.008651 0.01008 -3.413651 0.750596 0.497324 -15.925046 -3.112418 3.025021 -6.326663 0.002415 -0.01316 -18.08971 3.64248 -4.904002 0.004311 0.004244 0.013059 26.34359 2.156448 18.933495 58.589111 4.755476 6.250359 0.033725 10.743495 -0.08101 -8.766966 -6.946919 -7.121502 2.246783 -5.270311 -3.202878 14.296751 -0.807871 6.934369 -0.000704 -12.692301 -0.000349 16.67872 -18.135582 2.455645 1.668626 -1.948238 -2.874053 4.723481 -4.179308 4.995837 11.015836 0.001952 0.00259 12.121725 -3.748929 -2.871278 -0.005763 -0.003514 -0.005859 1.291456 -1.926095 -1.488091 14.787281 0.566972 3.862879 14.229774 -1.348092 -6.652968 19.591801 0.142591 -0.634996 50.745453 -0.6731 -6.256042 0.352929 -1.509105 -0.02602 20.208342 3.688834 2.314722 18.795246 -0.001767 0.000783 10.74389 -0.483285 1.39614 1.9e-05 -0.002204 -0.002373 3.271917 0.311898 -0.574619 21.487036 11.836497 2.266117 8.162246 -0.000636 0.001841 18.384861 -3.799562 -4.940516 0.010041 0.003481 -0.000906 0.0391 9.838546 20.640938 0.113353 -0.160866 7.31855 -1.905765 -1.82742 -7.88895 1.863084 -1.855899 -13.218877 -0.000142 -0.000593 0.011639 2.734147 -3.334457 -24.130512 0.327777 0.604477 1.143986 8.851311 -8.523371 0.37537 -1.353092 1.120604 -7.90234 0.001054 -0.004282 0.001531 
-46.38446 0.0 318.561493 0.0 -0.0 0.0 0.0 95.714081 0.0 -1.36846 -9.210157 0.001614 0.432918 -0.343329 -0.152817 -0.684761 -2.432351 -4.893255 0.098078 -4.187358 11.056454 1.833007 2.81528 0.765322 0.21252 3.542456 -3.970584 -0.215103 4.200809 -14.537474 0.000271 -0.001695 -0.004588 0.05036 -0.011225 -0.008608 0.708186 -3.727936 -10.642816 -0.611903 3.717005 -10.627308 -16.151674 -5.863772 15.762112 -58.298222 -9.426764 -2.792099 -0.413858 -27.434443 -0.148099 13.912818 -2.481939 -0.646925 -5.884417 9.817257 0.826992 -10.956505 -0.355046 7.186323 -0.012515 8.780186 0.00746 -15.568357 18.200853 6.567089 -1.844402 2.500972 -2.51127 -10.16129 4.696472 4.625188 -20.986486 0.014836 0.000458 -21.25281 2.456644 -3.587345 0.001975 0.002381 0.010513 -1.362552 2.254185 -0.732069 -21.325918 0.595747 2.999228 -13.818893 0.005504 0.003492 -23.873787 -0.232718 -0.858604 -60.456306 2.746808 -0.769063 -0.302869 1.705606 0.838514 -14.203915 0.082672 1.302936 -34.218502 -0.252887 0.963126 -20.047113 0.984461 1.214906 0.01832 -0.000302 -0.003959 -3.447195 0.831352 0.499692 -15.909617 -3.197886 3.007173 -6.341953 0.0095 0.016274 -18.093842 3.668962 -4.92239 0.00206 -0.001144 -0.011684 28.020878 2.096481 18.925251 56.747337 3.808545 6.581169 0.125491 10.049571 -0.007772 -8.532098 -7.831934 -7.291184 2.190308 -5.230953 -3.207037 14.29037 -0.832847 6.93773 0.003817 -12.718092 -0.003632 16.894564 -18.003735 2.260358 1.670618 -1.940006 -2.878306 4.723369 -4.184658 4.991501 11.012683 -0.003896 -0.003563 12.104286 -3.749947 -2.879758 -0.005727 0.005837 0.003838 1.293862 -1.921157 -1.491149 14.771348 0.563801 3.858666 14.212331 -1.34919 -6.661324 19.570324 0.145782 -0.653209 51.028175 -0.554289 -6.27105 0.35565 -1.503691 -0.028543 20.192232 3.673928 2.309858 18.752249 -0.00326 -0.00498 10.736348 -0.47248 1.397685 0.014101 -0.001563 -0.00168 3.265944 0.293331 -0.577385 21.472364 11.843763 2.273922 8.135778 0.001686 -0.00409 18.374277 -3.804572 -4.942068 -0.019525 0.004657 -0.00045 4.718865 10.929558 19.104574 0.132548 -0.564209 15.234623 -3.222569 -3.369738 -3.578758 2.052156 -1.74164 -22.775204 6e-06 -9.5e-05 0.001208 5.875737 -1.71866 -24.218254 0.304274 0.616628 5.266785 4.084259 -7.986086 7.907918 -1.401824 1.030979 -7.174952 0.000256 -0.000742 -0.00206 
-47.869389 0.0 323.985443 0.0 -0.0 0.0 0.0 95.964432 0.0 -3.6307 -9.973931 0.164137 1.407207 -0.131716 -0.485476 -0.405552 -2.431057 -4.898306 1.253109 -4.227296 10.91543 1.240203 2.868013 1.06154 0.328974 4.017045 -3.962595 0.101483 4.151953 -14.182052 0.000333 0.001857 -0.004591 0.062869 0.047906 -0.003157 0.75193 -3.720107 -10.740248 -0.631476 3.826993 -10.721926 -16.755077 -5.294868 15.607341 -59.129425 -8.633039 -4.496326 -0.50682 -28.058113 -0.135401 14.842401 -3.492399 -0.581229 -5.878039 9.864252 0.711902 -10.935095 -0.371899 7.148573 -0.000716 8.7669 -0.001282 -15.637976 18.312302 6.536886 -1.84902 2.507759 -2.5025 -10.152615 4.665195 4.632903 -20.970659 -0.008293 0.004042 -21.242153 2.449057 -3.604863 0.007079 0.005341 -0.001171 -1.37047 2.232073 -0.73705 -21.327057 0.583434 3.018037 -13.813002 -0.012214 -0.009282 -23.883986 -0.284612 -0.837988 -60.463737 2.722477 -0.816989 -0.284781 1.670767 0.843296 -14.213728 0.086271 1.306396 -34.188393 -0.297405 0.96167 -20.010832 0.963632 1.203047 -0.007323 -0.004992 0.002413 -3.435361 0.772842 0.510306 -15.924191 -3.160539 3.001529 -6.334874 0.002646 -0.000279 -18.079933 3.646165 -4.896703 0.001131 -0.002391 0.017658 27.594488 2.390704 18.79945 56.6577 3.915615 7.190477 -0.151578 9.438202 -0.004974 -8.544965 -8.488207 -7.534179 2.230175 -5.23037 -3.114974 14.281715 -0.805165 6.980684 0.005024 -12.700361 -0.005537 17.04755 -18.095144 2.228767 1.667034 -1.956972 -2.880763 4.722333 -4.178127 4.987417 11.019799 0.000987 -0.001377 12.105545 -3.708355 -2.865692 -0.00161 -0.00678 -0.002758 1.289911 -1.932725 -1.502954 14.792308 0.561842 3.864151 14.230603 -1.336344 -6.662228 19.590235 0.139875 -0.64901 51.380314 -0.657005 -5.974473 0.349691 -1.509674 -0.041378 20.210335 3.668991 2.315065 18.775267 0.004636 -0.003952 10.752374 -0.48157 1.401012 -0.000253 0.00044 -0.001481 3.26306 0.315383 -0.599389 21.482628 11.782207 2.264441 8.150007 -0.002455 0.000625 18.386312 -3.801615 -4.930671 -0.01023 0.00582 0.002234 8.246976 11.146482 16.28249 0.064915 -0.781678 25.834362 -3.776664 -3.577655 4.997202 2.306347 -1.619246 -32.635921 -0.000309 -8.2e-05 0.004084 8.470994 -0.116034 -24.488926 0.132062 0.42809 12.586484 1.505514 -7.5685 8.813975 -1.42585 0.913425 -5.437115 0.004895 0.010893 0.004784 
-49.308334 0.0 329.531555 0.0 -0.0 0.0 0.0 96.198532 0.0 -4.818348 -10.578683 -0.895905 1.664227 -0.037306 0.039453 -0.240022 -2.343372 -4.712116 1.909173 -4.263283 10.918821 1.121174 2.763078 1.861774 0.387261 4.205409 -3.838213 0.331383 4.392818 -14.508118 -0.00053 -0.000262 -1.2e-05 0.049787 0.014036 0.045138 0.730152 -3.759098 -10.71557 -0.634877 3.795772 -10.695274 -16.017305 -5.156943 16.132198 -61.150841 -8.752692 -5.303515 -0.170768 -27.825449 -0.212525 15.361316 -3.871383 -2.059212 -5.909643 9.814898 0.860828 -10.973932 -0.376558 7.169916 -0.003176 8.784611 -0.005166 -15.74789 18.526829 6.48734 -1.851569 2.494206 -2.509913 -10.1556 4.680153 4.615763 -20.966831 0.005065 0.019557 -21.203941 2.460757 -3.582561 -0.001068 -0.001808 -0.004269 -1.365422 2.232093 -0.747312 -21.330112 0.593444 3.007421 -13.826861 -0.000704 0.020625 -23.913883 -0.240987 -0.85263 -60.269432 2.900289 -1.051105 -0.29798 1.676914 0.825682 -14.212363 0.101587 1.305197 -34.206535 -0.263579 0.971845 -20.020292 0.990332 1.234096 0.002201 0.001182 0.003409 -3.447623 0.803823 0.490238 -15.921618 -3.175585 3.011203 -6.336944 -0.006385 0.010318 -18.128601 3.666382 -4.901236 0.006712 0.003084 -0.000452 25.913666 2.841846 19.265335 57.85923 4.940566 7.884541 -0.319332 9.849249 -0.010207 -9.51712 -8.575665 -7.908742 2.213298 -5.188218 -3.026801 14.257172 -0.859506 7.030109 -0.001249 -12.70072 0.001992 17.258406 -17.91608 2.032169 1.66544 -1.952223 -2.888636 4.736978 -4.185548 4.979722 11.030179 0.007439 -0.007733 12.129282 -3.751262 -2.888452 -0.000174 0.006099 0.001517 1.292894 -1.936853 -1.512071 14.822771 0.575791 3.858544 14.269695 -1.338691 -6.685655 19.673796 0.14965 -0.656797 51.357281 -0.676129 -6.048196 0.350323 -1.52762 -0.049075 20.23667 3.700352 2.309114 18.80406 0.005305 -0.002634 10.730798 -0.476604 1.403946 0.007882 0.001796 -0.001154 3.293039 0.275743 -0.616445 21.490408 11.870554 2.26755 8.176193 -0.001474 0.000612 18.456192 -3.79881 -4.956788 -0.010535 -0.002639 -0.002941 10.043387 9.949481 12.336991 -0.058429 -0.663524 37.828674 -4.629801 -2.651829 15.988648 2.331341 -1.487936 -29.755426 -0.000536 3.8e-05 0.026404 9.986839 0.075307 -22.49601 0.175375 0.097175 18.256474 -0.936487 -6.277517 5.581072 -1.430584 0.809307 -3.660082 0.000527 -0.001664 -0.001861 
